<mxfile host="app.diagrams.net" agent="Mozilla/5.0 (Windows NT 10.0; Win64; x64) AppleWebKit/537.36 (KHTML, like Gecko) Chrome/126.0.0.0 YaBrowser/24.7.0.0 Safari/537.36" version="24.7.12">
  <diagram name="Page-1" id="-H_mtQnk-PTXWXPvYvuk">
    <mxGraphModel dx="2932" dy="3336" grid="1" gridSize="10" guides="1" tooltips="1" connect="1" arrows="1" fold="1" page="1" pageScale="1" pageWidth="4681" pageHeight="3300" math="0" shadow="0">
      <root>
        <mxCell id="0" />
        <mxCell id="1" parent="0" />
        <mxCell id="gZ_beA-vXtJLZaEBM_sQ-179" style="edgeStyle=orthogonalEdgeStyle;rounded=0;orthogonalLoop=1;jettySize=auto;html=1;exitX=0;exitY=0.25;exitDx=0;exitDy=0;entryX=0.5;entryY=0;entryDx=0;entryDy=0;" edge="1" parent="1" source="gZ_beA-vXtJLZaEBM_sQ-153" target="gZ_beA-vXtJLZaEBM_sQ-152">
          <mxGeometry relative="1" as="geometry" />
        </mxCell>
        <mxCell id="gZ_beA-vXtJLZaEBM_sQ-153" value="" style="whiteSpace=wrap;html=1;aspect=fixed;" vertex="1" parent="1">
          <mxGeometry x="660" y="1820" width="730" height="730" as="geometry" />
        </mxCell>
        <mxCell id="gZ_beA-vXtJLZaEBM_sQ-23" value="" style="whiteSpace=wrap;html=1;aspect=fixed;" vertex="1" parent="1">
          <mxGeometry x="690" y="720" width="220" height="220" as="geometry" />
        </mxCell>
        <mxCell id="zA23MoTUsTF4_91t8viU-2" value="MongoDB" style="shape=cylinder3;whiteSpace=wrap;html=1;boundedLbl=1;backgroundOutline=1;size=15;" parent="1" vertex="1">
          <mxGeometry x="560" y="280" width="60" height="80" as="geometry" />
        </mxCell>
        <mxCell id="zA23MoTUsTF4_91t8viU-3" value="pymongo-api" style="rounded=1;whiteSpace=wrap;html=1;" parent="1" vertex="1">
          <mxGeometry x="360" y="290" width="120" height="60" as="geometry" />
        </mxCell>
        <mxCell id="zA23MoTUsTF4_91t8viU-4" style="edgeStyle=orthogonalEdgeStyle;rounded=0;orthogonalLoop=1;jettySize=auto;html=1;exitX=1;exitY=0.5;exitDx=0;exitDy=0;entryX=0;entryY=0.5;entryDx=0;entryDy=0;entryPerimeter=0;" parent="1" source="zA23MoTUsTF4_91t8viU-3" target="zA23MoTUsTF4_91t8viU-2" edge="1">
          <mxGeometry relative="1" as="geometry" />
        </mxCell>
        <mxCell id="gZ_beA-vXtJLZaEBM_sQ-7" value="MongoDB&lt;br&gt;шард 2" style="shape=cylinder3;whiteSpace=wrap;html=1;boundedLbl=1;backgroundOutline=1;size=15;" vertex="1" parent="1">
          <mxGeometry x="660" y="570" width="60" height="80" as="geometry" />
        </mxCell>
        <mxCell id="gZ_beA-vXtJLZaEBM_sQ-8" value="pymongo-api" style="rounded=1;whiteSpace=wrap;html=1;" vertex="1" parent="1">
          <mxGeometry x="360" y="520" width="120" height="60" as="geometry" />
        </mxCell>
        <mxCell id="gZ_beA-vXtJLZaEBM_sQ-9" style="edgeStyle=orthogonalEdgeStyle;rounded=0;orthogonalLoop=1;jettySize=auto;html=1;exitX=1;exitY=0.5;exitDx=0;exitDy=0;entryX=0;entryY=0.5;entryDx=0;entryDy=0;" edge="1" parent="1" source="gZ_beA-vXtJLZaEBM_sQ-8" target="gZ_beA-vXtJLZaEBM_sQ-11">
          <mxGeometry relative="1" as="geometry" />
        </mxCell>
        <mxCell id="gZ_beA-vXtJLZaEBM_sQ-10" value="MongoDB&lt;br&gt;шард 1" style="shape=cylinder3;whiteSpace=wrap;html=1;boundedLbl=1;backgroundOutline=1;size=15;" vertex="1" parent="1">
          <mxGeometry x="660" y="470" width="60" height="80" as="geometry" />
        </mxCell>
        <mxCell id="gZ_beA-vXtJLZaEBM_sQ-11" value="Драйвер" style="rounded=0;whiteSpace=wrap;html=1;" vertex="1" parent="1">
          <mxGeometry x="510" y="520" width="120" height="60" as="geometry" />
        </mxCell>
        <mxCell id="gZ_beA-vXtJLZaEBM_sQ-12" style="edgeStyle=orthogonalEdgeStyle;rounded=0;orthogonalLoop=1;jettySize=auto;html=1;exitX=1;exitY=0.5;exitDx=0;exitDy=0;entryX=0;entryY=0.5;entryDx=0;entryDy=0;entryPerimeter=0;" edge="1" parent="1" source="gZ_beA-vXtJLZaEBM_sQ-11" target="gZ_beA-vXtJLZaEBM_sQ-10">
          <mxGeometry relative="1" as="geometry" />
        </mxCell>
        <mxCell id="gZ_beA-vXtJLZaEBM_sQ-13" style="edgeStyle=orthogonalEdgeStyle;rounded=0;orthogonalLoop=1;jettySize=auto;html=1;exitX=1;exitY=0.5;exitDx=0;exitDy=0;entryX=0;entryY=0.5;entryDx=0;entryDy=0;entryPerimeter=0;" edge="1" parent="1" source="gZ_beA-vXtJLZaEBM_sQ-11" target="gZ_beA-vXtJLZaEBM_sQ-7">
          <mxGeometry relative="1" as="geometry" />
        </mxCell>
        <mxCell id="gZ_beA-vXtJLZaEBM_sQ-15" value="pymongo-api" style="rounded=1;whiteSpace=wrap;html=1;" vertex="1" parent="1">
          <mxGeometry x="360" y="910" width="120" height="60" as="geometry" />
        </mxCell>
        <mxCell id="gZ_beA-vXtJLZaEBM_sQ-16" style="edgeStyle=orthogonalEdgeStyle;rounded=0;orthogonalLoop=1;jettySize=auto;html=1;exitX=1;exitY=0.5;exitDx=0;exitDy=0;entryX=0;entryY=0.5;entryDx=0;entryDy=0;" edge="1" parent="1" source="gZ_beA-vXtJLZaEBM_sQ-15" target="gZ_beA-vXtJLZaEBM_sQ-18">
          <mxGeometry relative="1" as="geometry" />
        </mxCell>
        <mxCell id="gZ_beA-vXtJLZaEBM_sQ-17" value="MongoDB&lt;br&gt;primary" style="shape=cylinder3;whiteSpace=wrap;html=1;boundedLbl=1;backgroundOutline=1;size=15;" vertex="1" parent="1">
          <mxGeometry x="720" y="780" width="60" height="80" as="geometry" />
        </mxCell>
        <mxCell id="gZ_beA-vXtJLZaEBM_sQ-18" value="Драйвер" style="rounded=0;whiteSpace=wrap;html=1;" vertex="1" parent="1">
          <mxGeometry x="510" y="910" width="120" height="60" as="geometry" />
        </mxCell>
        <mxCell id="gZ_beA-vXtJLZaEBM_sQ-19" style="edgeStyle=orthogonalEdgeStyle;rounded=0;orthogonalLoop=1;jettySize=auto;html=1;exitX=1;exitY=0.5;exitDx=0;exitDy=0;entryX=0;entryY=0.5;entryDx=0;entryDy=0;" edge="1" parent="1" source="gZ_beA-vXtJLZaEBM_sQ-18" target="gZ_beA-vXtJLZaEBM_sQ-23">
          <mxGeometry relative="1" as="geometry">
            <mxPoint x="650" y="830" as="targetPoint" />
          </mxGeometry>
        </mxCell>
        <mxCell id="gZ_beA-vXtJLZaEBM_sQ-20" style="edgeStyle=orthogonalEdgeStyle;rounded=0;orthogonalLoop=1;jettySize=auto;html=1;exitX=1;exitY=0.5;exitDx=0;exitDy=0;entryX=-0.008;entryY=0.53;entryDx=0;entryDy=0;entryPerimeter=0;" edge="1" parent="1" source="gZ_beA-vXtJLZaEBM_sQ-18" target="gZ_beA-vXtJLZaEBM_sQ-27">
          <mxGeometry relative="1" as="geometry">
            <mxPoint x="660" y="1000" as="targetPoint" />
          </mxGeometry>
        </mxCell>
        <mxCell id="gZ_beA-vXtJLZaEBM_sQ-21" value="MongoDB&lt;br&gt;secondary&amp;nbsp;" style="shape=cylinder3;whiteSpace=wrap;html=1;boundedLbl=1;backgroundOutline=1;size=15;" vertex="1" parent="1">
          <mxGeometry x="810" y="730" width="60" height="80" as="geometry" />
        </mxCell>
        <mxCell id="gZ_beA-vXtJLZaEBM_sQ-22" value="MongoDB&lt;br&gt;secondary&amp;nbsp;" style="shape=cylinder3;whiteSpace=wrap;html=1;boundedLbl=1;backgroundOutline=1;size=15;" vertex="1" parent="1">
          <mxGeometry x="810" y="840" width="60" height="80" as="geometry" />
        </mxCell>
        <mxCell id="gZ_beA-vXtJLZaEBM_sQ-25" value="Шард 1" style="text;html=1;align=center;verticalAlign=middle;whiteSpace=wrap;rounded=0;" vertex="1" parent="1">
          <mxGeometry x="700" y="730" width="60" height="30" as="geometry" />
        </mxCell>
        <mxCell id="gZ_beA-vXtJLZaEBM_sQ-27" value="" style="whiteSpace=wrap;html=1;aspect=fixed;" vertex="1" parent="1">
          <mxGeometry x="690" y="960" width="220" height="220" as="geometry" />
        </mxCell>
        <mxCell id="gZ_beA-vXtJLZaEBM_sQ-28" value="MongoDB&lt;br&gt;primary" style="shape=cylinder3;whiteSpace=wrap;html=1;boundedLbl=1;backgroundOutline=1;size=15;" vertex="1" parent="1">
          <mxGeometry x="720" y="1020" width="60" height="80" as="geometry" />
        </mxCell>
        <mxCell id="gZ_beA-vXtJLZaEBM_sQ-29" value="MongoDB&lt;br&gt;secondary&amp;nbsp;" style="shape=cylinder3;whiteSpace=wrap;html=1;boundedLbl=1;backgroundOutline=1;size=15;" vertex="1" parent="1">
          <mxGeometry x="810" y="970" width="60" height="80" as="geometry" />
        </mxCell>
        <mxCell id="gZ_beA-vXtJLZaEBM_sQ-30" value="MongoDB&lt;br&gt;secondary&amp;nbsp;" style="shape=cylinder3;whiteSpace=wrap;html=1;boundedLbl=1;backgroundOutline=1;size=15;" vertex="1" parent="1">
          <mxGeometry x="810" y="1080" width="60" height="80" as="geometry" />
        </mxCell>
        <mxCell id="gZ_beA-vXtJLZaEBM_sQ-31" value="Шард 1" style="text;html=1;align=center;verticalAlign=middle;whiteSpace=wrap;rounded=0;" vertex="1" parent="1">
          <mxGeometry x="700" y="970" width="60" height="30" as="geometry" />
        </mxCell>
        <mxCell id="gZ_beA-vXtJLZaEBM_sQ-47" value="" style="whiteSpace=wrap;html=1;aspect=fixed;" vertex="1" parent="1">
          <mxGeometry x="795" y="1300" width="220" height="220" as="geometry" />
        </mxCell>
        <mxCell id="gZ_beA-vXtJLZaEBM_sQ-48" value="pymongo-api" style="rounded=1;whiteSpace=wrap;html=1;" vertex="1" parent="1">
          <mxGeometry x="360" y="1490" width="120" height="60" as="geometry" />
        </mxCell>
        <mxCell id="gZ_beA-vXtJLZaEBM_sQ-49" style="edgeStyle=orthogonalEdgeStyle;rounded=0;orthogonalLoop=1;jettySize=auto;html=1;exitX=1;exitY=0.5;exitDx=0;exitDy=0;entryX=0;entryY=0.5;entryDx=0;entryDy=0;" edge="1" parent="1" source="gZ_beA-vXtJLZaEBM_sQ-48" target="gZ_beA-vXtJLZaEBM_sQ-51">
          <mxGeometry relative="1" as="geometry">
            <mxPoint x="585" y="1520" as="sourcePoint" />
          </mxGeometry>
        </mxCell>
        <mxCell id="gZ_beA-vXtJLZaEBM_sQ-50" value="MongoDB&lt;br&gt;primary" style="shape=cylinder3;whiteSpace=wrap;html=1;boundedLbl=1;backgroundOutline=1;size=15;" vertex="1" parent="1">
          <mxGeometry x="825" y="1360" width="60" height="80" as="geometry" />
        </mxCell>
        <mxCell id="gZ_beA-vXtJLZaEBM_sQ-51" value="Драйвер" style="rounded=0;whiteSpace=wrap;html=1;" vertex="1" parent="1">
          <mxGeometry x="615" y="1490" width="120" height="60" as="geometry" />
        </mxCell>
        <mxCell id="gZ_beA-vXtJLZaEBM_sQ-52" style="edgeStyle=orthogonalEdgeStyle;rounded=0;orthogonalLoop=1;jettySize=auto;html=1;exitX=1;exitY=0.5;exitDx=0;exitDy=0;entryX=0;entryY=0.5;entryDx=0;entryDy=0;" edge="1" parent="1" source="gZ_beA-vXtJLZaEBM_sQ-51" target="gZ_beA-vXtJLZaEBM_sQ-47">
          <mxGeometry relative="1" as="geometry">
            <mxPoint x="755" y="1410" as="targetPoint" />
          </mxGeometry>
        </mxCell>
        <mxCell id="gZ_beA-vXtJLZaEBM_sQ-53" style="edgeStyle=orthogonalEdgeStyle;rounded=0;orthogonalLoop=1;jettySize=auto;html=1;exitX=1;exitY=0.5;exitDx=0;exitDy=0;entryX=-0.008;entryY=0.53;entryDx=0;entryDy=0;entryPerimeter=0;" edge="1" parent="1" source="gZ_beA-vXtJLZaEBM_sQ-51" target="gZ_beA-vXtJLZaEBM_sQ-57">
          <mxGeometry relative="1" as="geometry">
            <mxPoint x="765" y="1580" as="targetPoint" />
          </mxGeometry>
        </mxCell>
        <mxCell id="gZ_beA-vXtJLZaEBM_sQ-54" value="MongoDB&lt;br&gt;secondary&amp;nbsp;" style="shape=cylinder3;whiteSpace=wrap;html=1;boundedLbl=1;backgroundOutline=1;size=15;" vertex="1" parent="1">
          <mxGeometry x="915" y="1310" width="60" height="80" as="geometry" />
        </mxCell>
        <mxCell id="gZ_beA-vXtJLZaEBM_sQ-55" value="MongoDB&lt;br&gt;secondary&amp;nbsp;" style="shape=cylinder3;whiteSpace=wrap;html=1;boundedLbl=1;backgroundOutline=1;size=15;" vertex="1" parent="1">
          <mxGeometry x="915" y="1420" width="60" height="80" as="geometry" />
        </mxCell>
        <mxCell id="gZ_beA-vXtJLZaEBM_sQ-56" value="Шард 1" style="text;html=1;align=center;verticalAlign=middle;whiteSpace=wrap;rounded=0;" vertex="1" parent="1">
          <mxGeometry x="805" y="1310" width="60" height="30" as="geometry" />
        </mxCell>
        <mxCell id="gZ_beA-vXtJLZaEBM_sQ-57" value="" style="whiteSpace=wrap;html=1;aspect=fixed;" vertex="1" parent="1">
          <mxGeometry x="795" y="1540" width="220" height="220" as="geometry" />
        </mxCell>
        <mxCell id="gZ_beA-vXtJLZaEBM_sQ-58" value="MongoDB&lt;br&gt;primary" style="shape=cylinder3;whiteSpace=wrap;html=1;boundedLbl=1;backgroundOutline=1;size=15;" vertex="1" parent="1">
          <mxGeometry x="825" y="1600" width="60" height="80" as="geometry" />
        </mxCell>
        <mxCell id="gZ_beA-vXtJLZaEBM_sQ-59" value="MongoDB&lt;br&gt;secondary&amp;nbsp;" style="shape=cylinder3;whiteSpace=wrap;html=1;boundedLbl=1;backgroundOutline=1;size=15;" vertex="1" parent="1">
          <mxGeometry x="915" y="1550" width="60" height="80" as="geometry" />
        </mxCell>
        <mxCell id="gZ_beA-vXtJLZaEBM_sQ-60" value="MongoDB&lt;br&gt;secondary&amp;nbsp;" style="shape=cylinder3;whiteSpace=wrap;html=1;boundedLbl=1;backgroundOutline=1;size=15;" vertex="1" parent="1">
          <mxGeometry x="915" y="1660" width="60" height="80" as="geometry" />
        </mxCell>
        <mxCell id="gZ_beA-vXtJLZaEBM_sQ-61" value="Шард 1" style="text;html=1;align=center;verticalAlign=middle;whiteSpace=wrap;rounded=0;" vertex="1" parent="1">
          <mxGeometry x="805" y="1550" width="60" height="30" as="geometry" />
        </mxCell>
        <mxCell id="gZ_beA-vXtJLZaEBM_sQ-62" value="Redis" style="shape=cylinder3;whiteSpace=wrap;html=1;boundedLbl=1;backgroundOutline=1;size=15;" vertex="1" parent="1">
          <mxGeometry x="530" y="1380" width="60" height="80" as="geometry" />
        </mxCell>
        <mxCell id="gZ_beA-vXtJLZaEBM_sQ-64" style="edgeStyle=orthogonalEdgeStyle;rounded=0;orthogonalLoop=1;jettySize=auto;html=1;exitX=1;exitY=0.5;exitDx=0;exitDy=0;entryX=0;entryY=0.5;entryDx=0;entryDy=0;entryPerimeter=0;" edge="1" parent="1" source="gZ_beA-vXtJLZaEBM_sQ-48" target="gZ_beA-vXtJLZaEBM_sQ-62">
          <mxGeometry relative="1" as="geometry" />
        </mxCell>
        <mxCell id="gZ_beA-vXtJLZaEBM_sQ-133" value="" style="whiteSpace=wrap;html=1;aspect=fixed;" vertex="1" parent="1">
          <mxGeometry x="1135" y="1860" width="220" height="220" as="geometry" />
        </mxCell>
        <mxCell id="gZ_beA-vXtJLZaEBM_sQ-134" value="pymongo-api" style="rounded=1;whiteSpace=wrap;html=1;" vertex="1" parent="1">
          <mxGeometry x="700" y="2050" width="120" height="60" as="geometry" />
        </mxCell>
        <mxCell id="gZ_beA-vXtJLZaEBM_sQ-135" style="edgeStyle=orthogonalEdgeStyle;rounded=0;orthogonalLoop=1;jettySize=auto;html=1;exitX=1;exitY=0.5;exitDx=0;exitDy=0;entryX=0;entryY=0.5;entryDx=0;entryDy=0;" edge="1" parent="1" source="gZ_beA-vXtJLZaEBM_sQ-134" target="gZ_beA-vXtJLZaEBM_sQ-137">
          <mxGeometry relative="1" as="geometry">
            <mxPoint x="925" y="2080" as="sourcePoint" />
          </mxGeometry>
        </mxCell>
        <mxCell id="gZ_beA-vXtJLZaEBM_sQ-136" value="MongoDB&lt;br&gt;primary" style="shape=cylinder3;whiteSpace=wrap;html=1;boundedLbl=1;backgroundOutline=1;size=15;" vertex="1" parent="1">
          <mxGeometry x="1165" y="1920" width="60" height="80" as="geometry" />
        </mxCell>
        <mxCell id="gZ_beA-vXtJLZaEBM_sQ-137" value="Драйвер" style="rounded=0;whiteSpace=wrap;html=1;" vertex="1" parent="1">
          <mxGeometry x="955" y="2050" width="120" height="60" as="geometry" />
        </mxCell>
        <mxCell id="gZ_beA-vXtJLZaEBM_sQ-138" style="edgeStyle=orthogonalEdgeStyle;rounded=0;orthogonalLoop=1;jettySize=auto;html=1;exitX=1;exitY=0.5;exitDx=0;exitDy=0;entryX=0;entryY=0.5;entryDx=0;entryDy=0;" edge="1" parent="1" source="gZ_beA-vXtJLZaEBM_sQ-137" target="gZ_beA-vXtJLZaEBM_sQ-133">
          <mxGeometry relative="1" as="geometry">
            <mxPoint x="1095" y="1970" as="targetPoint" />
          </mxGeometry>
        </mxCell>
        <mxCell id="gZ_beA-vXtJLZaEBM_sQ-139" style="edgeStyle=orthogonalEdgeStyle;rounded=0;orthogonalLoop=1;jettySize=auto;html=1;exitX=1;exitY=0.5;exitDx=0;exitDy=0;entryX=-0.008;entryY=0.53;entryDx=0;entryDy=0;entryPerimeter=0;" edge="1" parent="1" source="gZ_beA-vXtJLZaEBM_sQ-137" target="gZ_beA-vXtJLZaEBM_sQ-143">
          <mxGeometry relative="1" as="geometry">
            <mxPoint x="1105" y="2140" as="targetPoint" />
          </mxGeometry>
        </mxCell>
        <mxCell id="gZ_beA-vXtJLZaEBM_sQ-140" value="MongoDB&lt;br&gt;secondary&amp;nbsp;" style="shape=cylinder3;whiteSpace=wrap;html=1;boundedLbl=1;backgroundOutline=1;size=15;" vertex="1" parent="1">
          <mxGeometry x="1255" y="1870" width="60" height="80" as="geometry" />
        </mxCell>
        <mxCell id="gZ_beA-vXtJLZaEBM_sQ-141" value="MongoDB&lt;br&gt;secondary&amp;nbsp;" style="shape=cylinder3;whiteSpace=wrap;html=1;boundedLbl=1;backgroundOutline=1;size=15;" vertex="1" parent="1">
          <mxGeometry x="1255" y="1980" width="60" height="80" as="geometry" />
        </mxCell>
        <mxCell id="gZ_beA-vXtJLZaEBM_sQ-142" value="Шард 1" style="text;html=1;align=center;verticalAlign=middle;whiteSpace=wrap;rounded=0;" vertex="1" parent="1">
          <mxGeometry x="1145" y="1870" width="60" height="30" as="geometry" />
        </mxCell>
        <mxCell id="gZ_beA-vXtJLZaEBM_sQ-143" value="" style="whiteSpace=wrap;html=1;aspect=fixed;" vertex="1" parent="1">
          <mxGeometry x="1135" y="2100" width="220" height="220" as="geometry" />
        </mxCell>
        <mxCell id="gZ_beA-vXtJLZaEBM_sQ-144" value="MongoDB&lt;br&gt;primary" style="shape=cylinder3;whiteSpace=wrap;html=1;boundedLbl=1;backgroundOutline=1;size=15;" vertex="1" parent="1">
          <mxGeometry x="1165" y="2160" width="60" height="80" as="geometry" />
        </mxCell>
        <mxCell id="gZ_beA-vXtJLZaEBM_sQ-145" value="MongoDB&lt;br&gt;secondary&amp;nbsp;" style="shape=cylinder3;whiteSpace=wrap;html=1;boundedLbl=1;backgroundOutline=1;size=15;" vertex="1" parent="1">
          <mxGeometry x="1255" y="2110" width="60" height="80" as="geometry" />
        </mxCell>
        <mxCell id="gZ_beA-vXtJLZaEBM_sQ-146" value="MongoDB&lt;br&gt;secondary&amp;nbsp;" style="shape=cylinder3;whiteSpace=wrap;html=1;boundedLbl=1;backgroundOutline=1;size=15;" vertex="1" parent="1">
          <mxGeometry x="1255" y="2220" width="60" height="80" as="geometry" />
        </mxCell>
        <mxCell id="gZ_beA-vXtJLZaEBM_sQ-147" value="Шард 1" style="text;html=1;align=center;verticalAlign=middle;whiteSpace=wrap;rounded=0;" vertex="1" parent="1">
          <mxGeometry x="1145" y="2110" width="60" height="30" as="geometry" />
        </mxCell>
        <mxCell id="gZ_beA-vXtJLZaEBM_sQ-148" value="Redis" style="shape=cylinder3;whiteSpace=wrap;html=1;boundedLbl=1;backgroundOutline=1;size=15;" vertex="1" parent="1">
          <mxGeometry x="870" y="1940" width="60" height="80" as="geometry" />
        </mxCell>
        <mxCell id="gZ_beA-vXtJLZaEBM_sQ-149" style="edgeStyle=orthogonalEdgeStyle;rounded=0;orthogonalLoop=1;jettySize=auto;html=1;exitX=1;exitY=0.5;exitDx=0;exitDy=0;entryX=0;entryY=0.5;entryDx=0;entryDy=0;entryPerimeter=0;" edge="1" parent="1" source="gZ_beA-vXtJLZaEBM_sQ-134" target="gZ_beA-vXtJLZaEBM_sQ-148">
          <mxGeometry relative="1" as="geometry" />
        </mxCell>
        <mxCell id="gZ_beA-vXtJLZaEBM_sQ-154" style="edgeStyle=orthogonalEdgeStyle;rounded=0;orthogonalLoop=1;jettySize=auto;html=1;entryX=0;entryY=0.5;entryDx=0;entryDy=0;" edge="1" parent="1" source="gZ_beA-vXtJLZaEBM_sQ-150" target="gZ_beA-vXtJLZaEBM_sQ-151">
          <mxGeometry relative="1" as="geometry" />
        </mxCell>
        <mxCell id="gZ_beA-vXtJLZaEBM_sQ-150" value="Actor" style="shape=umlActor;verticalLabelPosition=bottom;verticalAlign=top;html=1;outlineConnect=0;" vertex="1" parent="1">
          <mxGeometry x="140" y="2170" width="30" height="60" as="geometry" />
        </mxCell>
        <mxCell id="gZ_beA-vXtJLZaEBM_sQ-155" style="edgeStyle=orthogonalEdgeStyle;rounded=0;orthogonalLoop=1;jettySize=auto;html=1;entryX=0;entryY=0.5;entryDx=0;entryDy=0;" edge="1" parent="1" source="gZ_beA-vXtJLZaEBM_sQ-151" target="gZ_beA-vXtJLZaEBM_sQ-152">
          <mxGeometry relative="1" as="geometry" />
        </mxCell>
        <mxCell id="gZ_beA-vXtJLZaEBM_sQ-178" style="edgeStyle=orthogonalEdgeStyle;rounded=0;orthogonalLoop=1;jettySize=auto;html=1;exitX=1;exitY=0.5;exitDx=0;exitDy=0;entryX=0;entryY=0.5;entryDx=0;entryDy=0;" edge="1" parent="1" source="gZ_beA-vXtJLZaEBM_sQ-151" target="gZ_beA-vXtJLZaEBM_sQ-153">
          <mxGeometry relative="1" as="geometry" />
        </mxCell>
        <mxCell id="gZ_beA-vXtJLZaEBM_sQ-151" value="API Gateway" style="rounded=1;whiteSpace=wrap;html=1;" vertex="1" parent="1">
          <mxGeometry x="360" y="2170" width="120" height="60" as="geometry" />
        </mxCell>
        <mxCell id="gZ_beA-vXtJLZaEBM_sQ-152" value="Consul" style="rounded=1;whiteSpace=wrap;html=1;" vertex="1" parent="1">
          <mxGeometry x="450" y="2050" width="120" height="60" as="geometry" />
        </mxCell>
        <mxCell id="gZ_beA-vXtJLZaEBM_sQ-156" value="Инстанс приложения" style="text;html=1;align=center;verticalAlign=middle;whiteSpace=wrap;rounded=0;" vertex="1" parent="1">
          <mxGeometry x="670" y="1830" width="170" height="30" as="geometry" />
        </mxCell>
        <mxCell id="gZ_beA-vXtJLZaEBM_sQ-180" style="edgeStyle=orthogonalEdgeStyle;rounded=0;orthogonalLoop=1;jettySize=auto;html=1;entryX=0.25;entryY=0;entryDx=0;entryDy=0;exitX=0.5;exitY=0;exitDx=0;exitDy=0;" edge="1" parent="1" source="gZ_beA-vXtJLZaEBM_sQ-158" target="gZ_beA-vXtJLZaEBM_sQ-152">
          <mxGeometry relative="1" as="geometry">
            <mxPoint x="1850" y="1790" as="sourcePoint" />
          </mxGeometry>
        </mxCell>
        <mxCell id="gZ_beA-vXtJLZaEBM_sQ-158" value="" style="whiteSpace=wrap;html=1;aspect=fixed;" vertex="1" parent="1">
          <mxGeometry x="1470" y="1830" width="730" height="730" as="geometry" />
        </mxCell>
        <mxCell id="gZ_beA-vXtJLZaEBM_sQ-159" value="" style="whiteSpace=wrap;html=1;aspect=fixed;" vertex="1" parent="1">
          <mxGeometry x="1945" y="1870" width="220" height="220" as="geometry" />
        </mxCell>
        <mxCell id="gZ_beA-vXtJLZaEBM_sQ-160" value="pymongo-api" style="rounded=1;whiteSpace=wrap;html=1;" vertex="1" parent="1">
          <mxGeometry x="1510" y="2060" width="120" height="60" as="geometry" />
        </mxCell>
        <mxCell id="gZ_beA-vXtJLZaEBM_sQ-161" style="edgeStyle=orthogonalEdgeStyle;rounded=0;orthogonalLoop=1;jettySize=auto;html=1;exitX=1;exitY=0.5;exitDx=0;exitDy=0;entryX=0;entryY=0.5;entryDx=0;entryDy=0;" edge="1" parent="1" source="gZ_beA-vXtJLZaEBM_sQ-160" target="gZ_beA-vXtJLZaEBM_sQ-163">
          <mxGeometry relative="1" as="geometry">
            <mxPoint x="1735" y="2090" as="sourcePoint" />
          </mxGeometry>
        </mxCell>
        <mxCell id="gZ_beA-vXtJLZaEBM_sQ-162" value="MongoDB&lt;br&gt;primary" style="shape=cylinder3;whiteSpace=wrap;html=1;boundedLbl=1;backgroundOutline=1;size=15;" vertex="1" parent="1">
          <mxGeometry x="1975" y="1930" width="60" height="80" as="geometry" />
        </mxCell>
        <mxCell id="gZ_beA-vXtJLZaEBM_sQ-163" value="Драйвер" style="rounded=0;whiteSpace=wrap;html=1;" vertex="1" parent="1">
          <mxGeometry x="1765" y="2060" width="120" height="60" as="geometry" />
        </mxCell>
        <mxCell id="gZ_beA-vXtJLZaEBM_sQ-164" style="edgeStyle=orthogonalEdgeStyle;rounded=0;orthogonalLoop=1;jettySize=auto;html=1;exitX=1;exitY=0.5;exitDx=0;exitDy=0;entryX=0;entryY=0.5;entryDx=0;entryDy=0;" edge="1" parent="1" source="gZ_beA-vXtJLZaEBM_sQ-163" target="gZ_beA-vXtJLZaEBM_sQ-159">
          <mxGeometry relative="1" as="geometry">
            <mxPoint x="1905" y="1980" as="targetPoint" />
          </mxGeometry>
        </mxCell>
        <mxCell id="gZ_beA-vXtJLZaEBM_sQ-165" style="edgeStyle=orthogonalEdgeStyle;rounded=0;orthogonalLoop=1;jettySize=auto;html=1;exitX=1;exitY=0.5;exitDx=0;exitDy=0;entryX=-0.008;entryY=0.53;entryDx=0;entryDy=0;entryPerimeter=0;" edge="1" parent="1" source="gZ_beA-vXtJLZaEBM_sQ-163" target="gZ_beA-vXtJLZaEBM_sQ-169">
          <mxGeometry relative="1" as="geometry">
            <mxPoint x="1915" y="2150" as="targetPoint" />
          </mxGeometry>
        </mxCell>
        <mxCell id="gZ_beA-vXtJLZaEBM_sQ-166" value="MongoDB&lt;br&gt;secondary&amp;nbsp;" style="shape=cylinder3;whiteSpace=wrap;html=1;boundedLbl=1;backgroundOutline=1;size=15;" vertex="1" parent="1">
          <mxGeometry x="2065" y="1880" width="60" height="80" as="geometry" />
        </mxCell>
        <mxCell id="gZ_beA-vXtJLZaEBM_sQ-167" value="MongoDB&lt;br&gt;secondary&amp;nbsp;" style="shape=cylinder3;whiteSpace=wrap;html=1;boundedLbl=1;backgroundOutline=1;size=15;" vertex="1" parent="1">
          <mxGeometry x="2065" y="1990" width="60" height="80" as="geometry" />
        </mxCell>
        <mxCell id="gZ_beA-vXtJLZaEBM_sQ-168" value="Шард 1" style="text;html=1;align=center;verticalAlign=middle;whiteSpace=wrap;rounded=0;" vertex="1" parent="1">
          <mxGeometry x="1955" y="1880" width="60" height="30" as="geometry" />
        </mxCell>
        <mxCell id="gZ_beA-vXtJLZaEBM_sQ-169" value="" style="whiteSpace=wrap;html=1;aspect=fixed;" vertex="1" parent="1">
          <mxGeometry x="1945" y="2110" width="220" height="220" as="geometry" />
        </mxCell>
        <mxCell id="gZ_beA-vXtJLZaEBM_sQ-170" value="MongoDB&lt;br&gt;primary" style="shape=cylinder3;whiteSpace=wrap;html=1;boundedLbl=1;backgroundOutline=1;size=15;" vertex="1" parent="1">
          <mxGeometry x="1975" y="2170" width="60" height="80" as="geometry" />
        </mxCell>
        <mxCell id="gZ_beA-vXtJLZaEBM_sQ-171" value="MongoDB&lt;br&gt;secondary&amp;nbsp;" style="shape=cylinder3;whiteSpace=wrap;html=1;boundedLbl=1;backgroundOutline=1;size=15;" vertex="1" parent="1">
          <mxGeometry x="2065" y="2120" width="60" height="80" as="geometry" />
        </mxCell>
        <mxCell id="gZ_beA-vXtJLZaEBM_sQ-172" value="MongoDB&lt;br&gt;secondary&amp;nbsp;" style="shape=cylinder3;whiteSpace=wrap;html=1;boundedLbl=1;backgroundOutline=1;size=15;" vertex="1" parent="1">
          <mxGeometry x="2065" y="2230" width="60" height="80" as="geometry" />
        </mxCell>
        <mxCell id="gZ_beA-vXtJLZaEBM_sQ-173" value="Шард 1" style="text;html=1;align=center;verticalAlign=middle;whiteSpace=wrap;rounded=0;" vertex="1" parent="1">
          <mxGeometry x="1955" y="2120" width="60" height="30" as="geometry" />
        </mxCell>
        <mxCell id="gZ_beA-vXtJLZaEBM_sQ-174" value="Redis" style="shape=cylinder3;whiteSpace=wrap;html=1;boundedLbl=1;backgroundOutline=1;size=15;" vertex="1" parent="1">
          <mxGeometry x="1680" y="1950" width="60" height="80" as="geometry" />
        </mxCell>
        <mxCell id="gZ_beA-vXtJLZaEBM_sQ-175" style="edgeStyle=orthogonalEdgeStyle;rounded=0;orthogonalLoop=1;jettySize=auto;html=1;exitX=1;exitY=0.5;exitDx=0;exitDy=0;entryX=0;entryY=0.5;entryDx=0;entryDy=0;entryPerimeter=0;" edge="1" parent="1" source="gZ_beA-vXtJLZaEBM_sQ-160" target="gZ_beA-vXtJLZaEBM_sQ-174">
          <mxGeometry relative="1" as="geometry" />
        </mxCell>
        <mxCell id="gZ_beA-vXtJLZaEBM_sQ-176" value="Инстанс приложения" style="text;html=1;align=center;verticalAlign=middle;whiteSpace=wrap;rounded=0;" vertex="1" parent="1">
          <mxGeometry x="1480" y="1840" width="170" height="30" as="geometry" />
        </mxCell>
        <mxCell id="gZ_beA-vXtJLZaEBM_sQ-177" style="edgeStyle=orthogonalEdgeStyle;rounded=0;orthogonalLoop=1;jettySize=auto;html=1;exitX=0.5;exitY=1;exitDx=0;exitDy=0;" edge="1" parent="1">
          <mxGeometry relative="1" as="geometry">
            <mxPoint x="420" y="2170" as="sourcePoint" />
            <mxPoint x="1835" y="2490" as="targetPoint" />
            <Array as="points">
              <mxPoint x="420" y="2590" />
              <mxPoint x="1835" y="2590" />
            </Array>
          </mxGeometry>
        </mxCell>
        <mxCell id="gZ_beA-vXtJLZaEBM_sQ-181" style="edgeStyle=orthogonalEdgeStyle;rounded=0;orthogonalLoop=1;jettySize=auto;html=1;exitX=0;exitY=0.25;exitDx=0;exitDy=0;entryX=0.5;entryY=0;entryDx=0;entryDy=0;" edge="1" parent="1" source="gZ_beA-vXtJLZaEBM_sQ-182" target="gZ_beA-vXtJLZaEBM_sQ-205">
          <mxGeometry relative="1" as="geometry" />
        </mxCell>
        <mxCell id="gZ_beA-vXtJLZaEBM_sQ-182" value="" style="whiteSpace=wrap;html=1;aspect=fixed;" vertex="1" parent="1">
          <mxGeometry x="2940" y="270" width="730" height="730" as="geometry" />
        </mxCell>
        <mxCell id="gZ_beA-vXtJLZaEBM_sQ-183" value="" style="whiteSpace=wrap;html=1;aspect=fixed;" vertex="1" parent="1">
          <mxGeometry x="3415" y="310" width="220" height="220" as="geometry" />
        </mxCell>
        <mxCell id="gZ_beA-vXtJLZaEBM_sQ-184" value="pymongo-api" style="rounded=1;whiteSpace=wrap;html=1;" vertex="1" parent="1">
          <mxGeometry x="2980" y="500" width="120" height="60" as="geometry" />
        </mxCell>
        <mxCell id="gZ_beA-vXtJLZaEBM_sQ-185" style="edgeStyle=orthogonalEdgeStyle;rounded=0;orthogonalLoop=1;jettySize=auto;html=1;exitX=1;exitY=0.5;exitDx=0;exitDy=0;entryX=0;entryY=0.5;entryDx=0;entryDy=0;" edge="1" parent="1" source="gZ_beA-vXtJLZaEBM_sQ-184" target="gZ_beA-vXtJLZaEBM_sQ-187">
          <mxGeometry relative="1" as="geometry">
            <mxPoint x="3205" y="530" as="sourcePoint" />
          </mxGeometry>
        </mxCell>
        <mxCell id="gZ_beA-vXtJLZaEBM_sQ-186" value="MongoDB&lt;br&gt;primary" style="shape=cylinder3;whiteSpace=wrap;html=1;boundedLbl=1;backgroundOutline=1;size=15;" vertex="1" parent="1">
          <mxGeometry x="3445" y="370" width="60" height="80" as="geometry" />
        </mxCell>
        <mxCell id="gZ_beA-vXtJLZaEBM_sQ-187" value="Драйвер" style="rounded=0;whiteSpace=wrap;html=1;" vertex="1" parent="1">
          <mxGeometry x="3235" y="500" width="120" height="60" as="geometry" />
        </mxCell>
        <mxCell id="gZ_beA-vXtJLZaEBM_sQ-188" style="edgeStyle=orthogonalEdgeStyle;rounded=0;orthogonalLoop=1;jettySize=auto;html=1;exitX=1;exitY=0.5;exitDx=0;exitDy=0;entryX=0;entryY=0.5;entryDx=0;entryDy=0;" edge="1" parent="1" source="gZ_beA-vXtJLZaEBM_sQ-187" target="gZ_beA-vXtJLZaEBM_sQ-183">
          <mxGeometry relative="1" as="geometry">
            <mxPoint x="3375" y="420" as="targetPoint" />
          </mxGeometry>
        </mxCell>
        <mxCell id="gZ_beA-vXtJLZaEBM_sQ-189" style="edgeStyle=orthogonalEdgeStyle;rounded=0;orthogonalLoop=1;jettySize=auto;html=1;exitX=1;exitY=0.5;exitDx=0;exitDy=0;entryX=-0.008;entryY=0.53;entryDx=0;entryDy=0;entryPerimeter=0;" edge="1" parent="1" source="gZ_beA-vXtJLZaEBM_sQ-187" target="gZ_beA-vXtJLZaEBM_sQ-193">
          <mxGeometry relative="1" as="geometry">
            <mxPoint x="3385" y="590" as="targetPoint" />
          </mxGeometry>
        </mxCell>
        <mxCell id="gZ_beA-vXtJLZaEBM_sQ-190" value="MongoDB&lt;br&gt;secondary&amp;nbsp;" style="shape=cylinder3;whiteSpace=wrap;html=1;boundedLbl=1;backgroundOutline=1;size=15;" vertex="1" parent="1">
          <mxGeometry x="3535" y="320" width="60" height="80" as="geometry" />
        </mxCell>
        <mxCell id="gZ_beA-vXtJLZaEBM_sQ-191" value="MongoDB&lt;br&gt;secondary&amp;nbsp;" style="shape=cylinder3;whiteSpace=wrap;html=1;boundedLbl=1;backgroundOutline=1;size=15;" vertex="1" parent="1">
          <mxGeometry x="3535" y="430" width="60" height="80" as="geometry" />
        </mxCell>
        <mxCell id="gZ_beA-vXtJLZaEBM_sQ-192" value="Шард 1" style="text;html=1;align=center;verticalAlign=middle;whiteSpace=wrap;rounded=0;" vertex="1" parent="1">
          <mxGeometry x="3425" y="320" width="60" height="30" as="geometry" />
        </mxCell>
        <mxCell id="gZ_beA-vXtJLZaEBM_sQ-193" value="" style="whiteSpace=wrap;html=1;aspect=fixed;" vertex="1" parent="1">
          <mxGeometry x="3415" y="550" width="220" height="220" as="geometry" />
        </mxCell>
        <mxCell id="gZ_beA-vXtJLZaEBM_sQ-194" value="MongoDB&lt;br&gt;primary" style="shape=cylinder3;whiteSpace=wrap;html=1;boundedLbl=1;backgroundOutline=1;size=15;" vertex="1" parent="1">
          <mxGeometry x="3445" y="610" width="60" height="80" as="geometry" />
        </mxCell>
        <mxCell id="gZ_beA-vXtJLZaEBM_sQ-195" value="MongoDB&lt;br&gt;secondary&amp;nbsp;" style="shape=cylinder3;whiteSpace=wrap;html=1;boundedLbl=1;backgroundOutline=1;size=15;" vertex="1" parent="1">
          <mxGeometry x="3535" y="560" width="60" height="80" as="geometry" />
        </mxCell>
        <mxCell id="gZ_beA-vXtJLZaEBM_sQ-196" value="MongoDB&lt;br&gt;secondary&amp;nbsp;" style="shape=cylinder3;whiteSpace=wrap;html=1;boundedLbl=1;backgroundOutline=1;size=15;" vertex="1" parent="1">
          <mxGeometry x="3535" y="670" width="60" height="80" as="geometry" />
        </mxCell>
        <mxCell id="gZ_beA-vXtJLZaEBM_sQ-197" value="Шард 1" style="text;html=1;align=center;verticalAlign=middle;whiteSpace=wrap;rounded=0;" vertex="1" parent="1">
          <mxGeometry x="3425" y="560" width="60" height="30" as="geometry" />
        </mxCell>
        <mxCell id="gZ_beA-vXtJLZaEBM_sQ-198" value="Redis" style="shape=cylinder3;whiteSpace=wrap;html=1;boundedLbl=1;backgroundOutline=1;size=15;" vertex="1" parent="1">
          <mxGeometry x="3150" y="390" width="60" height="80" as="geometry" />
        </mxCell>
        <mxCell id="gZ_beA-vXtJLZaEBM_sQ-199" style="edgeStyle=orthogonalEdgeStyle;rounded=0;orthogonalLoop=1;jettySize=auto;html=1;exitX=1;exitY=0.5;exitDx=0;exitDy=0;entryX=0;entryY=0.5;entryDx=0;entryDy=0;entryPerimeter=0;" edge="1" parent="1" source="gZ_beA-vXtJLZaEBM_sQ-184" target="gZ_beA-vXtJLZaEBM_sQ-198">
          <mxGeometry relative="1" as="geometry" />
        </mxCell>
        <mxCell id="gZ_beA-vXtJLZaEBM_sQ-200" style="edgeStyle=orthogonalEdgeStyle;rounded=0;orthogonalLoop=1;jettySize=auto;html=1;entryX=0;entryY=0.5;entryDx=0;entryDy=0;" edge="1" parent="1" source="gZ_beA-vXtJLZaEBM_sQ-201" target="gZ_beA-vXtJLZaEBM_sQ-204">
          <mxGeometry relative="1" as="geometry" />
        </mxCell>
        <mxCell id="gZ_beA-vXtJLZaEBM_sQ-229" style="edgeStyle=orthogonalEdgeStyle;rounded=0;orthogonalLoop=1;jettySize=auto;html=1;" edge="1" parent="1" source="gZ_beA-vXtJLZaEBM_sQ-201" target="gZ_beA-vXtJLZaEBM_sQ-228">
          <mxGeometry relative="1" as="geometry" />
        </mxCell>
        <mxCell id="gZ_beA-vXtJLZaEBM_sQ-201" value="Actor" style="shape=umlActor;verticalLabelPosition=bottom;verticalAlign=top;html=1;outlineConnect=0;" vertex="1" parent="1">
          <mxGeometry x="2420" y="620" width="30" height="60" as="geometry" />
        </mxCell>
        <mxCell id="gZ_beA-vXtJLZaEBM_sQ-202" style="edgeStyle=orthogonalEdgeStyle;rounded=0;orthogonalLoop=1;jettySize=auto;html=1;entryX=0;entryY=0.5;entryDx=0;entryDy=0;" edge="1" parent="1" source="gZ_beA-vXtJLZaEBM_sQ-204" target="gZ_beA-vXtJLZaEBM_sQ-205">
          <mxGeometry relative="1" as="geometry" />
        </mxCell>
        <mxCell id="gZ_beA-vXtJLZaEBM_sQ-203" style="edgeStyle=orthogonalEdgeStyle;rounded=0;orthogonalLoop=1;jettySize=auto;html=1;exitX=1;exitY=0.5;exitDx=0;exitDy=0;entryX=0;entryY=0.5;entryDx=0;entryDy=0;" edge="1" parent="1" source="gZ_beA-vXtJLZaEBM_sQ-204" target="gZ_beA-vXtJLZaEBM_sQ-182">
          <mxGeometry relative="1" as="geometry" />
        </mxCell>
        <mxCell id="gZ_beA-vXtJLZaEBM_sQ-204" value="API Gateway" style="rounded=1;whiteSpace=wrap;html=1;" vertex="1" parent="1">
          <mxGeometry x="2640" y="620" width="120" height="60" as="geometry" />
        </mxCell>
        <mxCell id="gZ_beA-vXtJLZaEBM_sQ-205" value="Consul" style="rounded=1;whiteSpace=wrap;html=1;" vertex="1" parent="1">
          <mxGeometry x="2730" y="500" width="120" height="60" as="geometry" />
        </mxCell>
        <mxCell id="gZ_beA-vXtJLZaEBM_sQ-206" value="Инстанс приложения" style="text;html=1;align=center;verticalAlign=middle;whiteSpace=wrap;rounded=0;" vertex="1" parent="1">
          <mxGeometry x="2950" y="280" width="170" height="30" as="geometry" />
        </mxCell>
        <mxCell id="gZ_beA-vXtJLZaEBM_sQ-207" style="edgeStyle=orthogonalEdgeStyle;rounded=0;orthogonalLoop=1;jettySize=auto;html=1;entryX=0.25;entryY=0;entryDx=0;entryDy=0;exitX=0.5;exitY=0;exitDx=0;exitDy=0;" edge="1" parent="1" source="gZ_beA-vXtJLZaEBM_sQ-208" target="gZ_beA-vXtJLZaEBM_sQ-205">
          <mxGeometry relative="1" as="geometry">
            <mxPoint x="4130" y="240" as="sourcePoint" />
          </mxGeometry>
        </mxCell>
        <mxCell id="gZ_beA-vXtJLZaEBM_sQ-208" value="" style="whiteSpace=wrap;html=1;aspect=fixed;" vertex="1" parent="1">
          <mxGeometry x="3750" y="280" width="730" height="730" as="geometry" />
        </mxCell>
        <mxCell id="gZ_beA-vXtJLZaEBM_sQ-209" value="" style="whiteSpace=wrap;html=1;aspect=fixed;" vertex="1" parent="1">
          <mxGeometry x="4225" y="320" width="220" height="220" as="geometry" />
        </mxCell>
        <mxCell id="gZ_beA-vXtJLZaEBM_sQ-210" value="pymongo-api" style="rounded=1;whiteSpace=wrap;html=1;" vertex="1" parent="1">
          <mxGeometry x="3790" y="510" width="120" height="60" as="geometry" />
        </mxCell>
        <mxCell id="gZ_beA-vXtJLZaEBM_sQ-211" style="edgeStyle=orthogonalEdgeStyle;rounded=0;orthogonalLoop=1;jettySize=auto;html=1;exitX=1;exitY=0.5;exitDx=0;exitDy=0;entryX=0;entryY=0.5;entryDx=0;entryDy=0;" edge="1" parent="1" source="gZ_beA-vXtJLZaEBM_sQ-210" target="gZ_beA-vXtJLZaEBM_sQ-213">
          <mxGeometry relative="1" as="geometry">
            <mxPoint x="4015" y="540" as="sourcePoint" />
          </mxGeometry>
        </mxCell>
        <mxCell id="gZ_beA-vXtJLZaEBM_sQ-212" value="MongoDB&lt;br&gt;primary" style="shape=cylinder3;whiteSpace=wrap;html=1;boundedLbl=1;backgroundOutline=1;size=15;" vertex="1" parent="1">
          <mxGeometry x="4255" y="380" width="60" height="80" as="geometry" />
        </mxCell>
        <mxCell id="gZ_beA-vXtJLZaEBM_sQ-213" value="Драйвер" style="rounded=0;whiteSpace=wrap;html=1;" vertex="1" parent="1">
          <mxGeometry x="4045" y="510" width="120" height="60" as="geometry" />
        </mxCell>
        <mxCell id="gZ_beA-vXtJLZaEBM_sQ-214" style="edgeStyle=orthogonalEdgeStyle;rounded=0;orthogonalLoop=1;jettySize=auto;html=1;exitX=1;exitY=0.5;exitDx=0;exitDy=0;entryX=0;entryY=0.5;entryDx=0;entryDy=0;" edge="1" parent="1" source="gZ_beA-vXtJLZaEBM_sQ-213" target="gZ_beA-vXtJLZaEBM_sQ-209">
          <mxGeometry relative="1" as="geometry">
            <mxPoint x="4185" y="430" as="targetPoint" />
          </mxGeometry>
        </mxCell>
        <mxCell id="gZ_beA-vXtJLZaEBM_sQ-215" style="edgeStyle=orthogonalEdgeStyle;rounded=0;orthogonalLoop=1;jettySize=auto;html=1;exitX=1;exitY=0.5;exitDx=0;exitDy=0;entryX=-0.008;entryY=0.53;entryDx=0;entryDy=0;entryPerimeter=0;" edge="1" parent="1" source="gZ_beA-vXtJLZaEBM_sQ-213" target="gZ_beA-vXtJLZaEBM_sQ-219">
          <mxGeometry relative="1" as="geometry">
            <mxPoint x="4195" y="600" as="targetPoint" />
          </mxGeometry>
        </mxCell>
        <mxCell id="gZ_beA-vXtJLZaEBM_sQ-216" value="MongoDB&lt;br&gt;secondary&amp;nbsp;" style="shape=cylinder3;whiteSpace=wrap;html=1;boundedLbl=1;backgroundOutline=1;size=15;" vertex="1" parent="1">
          <mxGeometry x="4345" y="330" width="60" height="80" as="geometry" />
        </mxCell>
        <mxCell id="gZ_beA-vXtJLZaEBM_sQ-217" value="MongoDB&lt;br&gt;secondary&amp;nbsp;" style="shape=cylinder3;whiteSpace=wrap;html=1;boundedLbl=1;backgroundOutline=1;size=15;" vertex="1" parent="1">
          <mxGeometry x="4345" y="440" width="60" height="80" as="geometry" />
        </mxCell>
        <mxCell id="gZ_beA-vXtJLZaEBM_sQ-218" value="Шард 1" style="text;html=1;align=center;verticalAlign=middle;whiteSpace=wrap;rounded=0;" vertex="1" parent="1">
          <mxGeometry x="4235" y="330" width="60" height="30" as="geometry" />
        </mxCell>
        <mxCell id="gZ_beA-vXtJLZaEBM_sQ-219" value="" style="whiteSpace=wrap;html=1;aspect=fixed;" vertex="1" parent="1">
          <mxGeometry x="4225" y="560" width="220" height="220" as="geometry" />
        </mxCell>
        <mxCell id="gZ_beA-vXtJLZaEBM_sQ-220" value="MongoDB&lt;br&gt;primary" style="shape=cylinder3;whiteSpace=wrap;html=1;boundedLbl=1;backgroundOutline=1;size=15;" vertex="1" parent="1">
          <mxGeometry x="4255" y="620" width="60" height="80" as="geometry" />
        </mxCell>
        <mxCell id="gZ_beA-vXtJLZaEBM_sQ-221" value="MongoDB&lt;br&gt;secondary&amp;nbsp;" style="shape=cylinder3;whiteSpace=wrap;html=1;boundedLbl=1;backgroundOutline=1;size=15;" vertex="1" parent="1">
          <mxGeometry x="4345" y="570" width="60" height="80" as="geometry" />
        </mxCell>
        <mxCell id="gZ_beA-vXtJLZaEBM_sQ-222" value="MongoDB&lt;br&gt;secondary&amp;nbsp;" style="shape=cylinder3;whiteSpace=wrap;html=1;boundedLbl=1;backgroundOutline=1;size=15;" vertex="1" parent="1">
          <mxGeometry x="4345" y="680" width="60" height="80" as="geometry" />
        </mxCell>
        <mxCell id="gZ_beA-vXtJLZaEBM_sQ-223" value="Шард 1" style="text;html=1;align=center;verticalAlign=middle;whiteSpace=wrap;rounded=0;" vertex="1" parent="1">
          <mxGeometry x="4235" y="570" width="60" height="30" as="geometry" />
        </mxCell>
        <mxCell id="gZ_beA-vXtJLZaEBM_sQ-224" value="Redis" style="shape=cylinder3;whiteSpace=wrap;html=1;boundedLbl=1;backgroundOutline=1;size=15;" vertex="1" parent="1">
          <mxGeometry x="3960" y="400" width="60" height="80" as="geometry" />
        </mxCell>
        <mxCell id="gZ_beA-vXtJLZaEBM_sQ-225" style="edgeStyle=orthogonalEdgeStyle;rounded=0;orthogonalLoop=1;jettySize=auto;html=1;exitX=1;exitY=0.5;exitDx=0;exitDy=0;entryX=0;entryY=0.5;entryDx=0;entryDy=0;entryPerimeter=0;" edge="1" parent="1" source="gZ_beA-vXtJLZaEBM_sQ-210" target="gZ_beA-vXtJLZaEBM_sQ-224">
          <mxGeometry relative="1" as="geometry" />
        </mxCell>
        <mxCell id="gZ_beA-vXtJLZaEBM_sQ-226" value="Инстанс приложения" style="text;html=1;align=center;verticalAlign=middle;whiteSpace=wrap;rounded=0;" vertex="1" parent="1">
          <mxGeometry x="3760" y="290" width="170" height="30" as="geometry" />
        </mxCell>
        <mxCell id="gZ_beA-vXtJLZaEBM_sQ-227" style="edgeStyle=orthogonalEdgeStyle;rounded=0;orthogonalLoop=1;jettySize=auto;html=1;exitX=0.5;exitY=1;exitDx=0;exitDy=0;" edge="1" parent="1">
          <mxGeometry relative="1" as="geometry">
            <mxPoint x="2700" y="620" as="sourcePoint" />
            <mxPoint x="4115" y="940" as="targetPoint" />
            <Array as="points">
              <mxPoint x="2700" y="1040" />
              <mxPoint x="4115" y="1040" />
            </Array>
          </mxGeometry>
        </mxCell>
        <mxCell id="gZ_beA-vXtJLZaEBM_sQ-228" value="CDN для контента и статики" style="ellipse;shape=cloud;whiteSpace=wrap;html=1;" vertex="1" parent="1">
          <mxGeometry x="2430" y="460" width="270" height="120" as="geometry" />
        </mxCell>
      </root>
    </mxGraphModel>
  </diagram>
</mxfile>
